M48
INCH
T40C0.020
T39C0.048
T38C0.129
%
T40
X003750Y001850
X003900Y004350
X004740Y003340
X005100Y000600
X005550Y004350
X006550Y001600
X006550Y001100
X006550Y000600
X007900Y005700
X007900Y005200
X008450Y005700
X008450Y005200
X009000Y005700
X009000Y005200
X011350Y008100
X011350Y006700
X011350Y005300
X011350Y003900
X015250Y002150
X015250Y001650
X015254Y001154
T39
X001350Y006600
X001350Y004600
X004450Y009200
X006450Y009200
X016800Y006900
X016800Y004900
T38
X001700Y009500
X001700Y001700
X017300Y009500
X017300Y001700
M30
