G04 start of page 6 for group -4063 idx -4063 *
G04 Title: (unknown), componentmask *
G04 Creator: pcb 20140316 *
G04 CreationDate: Sun 15 Dec 2019 10:03:36 PM GMT UTC *
G04 For: railfan *
G04 Format: Gerber/RS-274X *
G04 PCB-Dimensions (mil): 1900.00 1120.00 *
G04 PCB-Coordinate-Origin: lower left *
%MOIN*%
%FSLAX25Y25*%
%LNTOPMASK*%
%ADD49R,0.1005X0.1005*%
%ADD48R,0.0438X0.0438*%
%ADD47R,0.0560X0.0560*%
%ADD46R,0.0300X0.0300*%
%ADD45R,0.0610X0.0610*%
%ADD44R,0.0572X0.0572*%
%ADD43C,0.0860*%
%ADD42C,0.0001*%
%ADD41C,0.2997*%
G54D41*X17000Y95000D03*
X173000D03*
G54D42*G36*
X60200Y96300D02*Y87700D01*
X68800D01*
Y96300D01*
X60200D01*
G37*
G54D43*X44500Y92000D03*
G54D41*X17000Y17000D03*
G54D42*G36*
X9200Y70300D02*Y61700D01*
X17800D01*
Y70300D01*
X9200D01*
G37*
G54D43*X13500Y46000D03*
G54D41*X173000Y17000D03*
G54D42*G36*
X163700Y53300D02*Y44700D01*
X172300D01*
Y53300D01*
X163700D01*
G37*
G54D43*X168000Y69000D03*
G54D44*X131245Y72905D02*X136755D01*
X131245Y61095D02*X136755D01*
G54D45*X113500Y75000D02*Y73000D01*
Y89000D02*Y87000D01*
X100500Y75000D02*Y73000D01*
Y89000D02*Y87000D01*
Y61000D02*Y59000D01*
G54D46*X43500Y40300D02*Y38700D01*
X47400Y40300D02*Y38700D01*
X51300Y40300D02*Y38700D01*
X47400Y48500D02*Y46900D01*
X43500Y48500D02*Y46900D01*
G54D44*X60414Y48893D02*Y48107D01*
X67500Y48893D02*Y48107D01*
X87107Y63457D02*X87893D01*
X87107Y70543D02*X87893D01*
X77607Y63457D02*X78393D01*
X77607Y70543D02*X78393D01*
G54D46*X51300Y48500D02*Y46900D01*
G54D44*X43957Y61893D02*Y61107D01*
X51043Y61893D02*Y61107D01*
X43957Y70893D02*Y70107D01*
X51043Y70893D02*Y70107D01*
X60457Y38893D02*Y38107D01*
X56414Y28393D02*Y27607D01*
X63500Y28393D02*Y27607D01*
X67543Y38893D02*Y38107D01*
G54D46*X55500Y21000D02*X62000D01*
X55500Y16000D02*X62000D01*
X55500Y11000D02*X62000D01*
X55500Y6000D02*X62000D01*
G54D44*X47107Y13457D02*X47893D01*
X47107Y20543D02*X47893D01*
X37107Y6957D02*X37893D01*
X37107Y14043D02*X37893D01*
X37107Y22914D02*X37893D01*
X37107Y30000D02*X37893D01*
G54D45*X113500Y47000D02*Y45000D01*
Y61000D02*Y59000D01*
G54D47*X110516Y28500D02*X120004D01*
X110516Y18500D02*X120004D01*
X110516Y8500D02*X120004D01*
G54D45*X100500Y47000D02*Y45000D01*
G54D44*X98043Y26893D02*Y26107D01*
Y35893D02*Y35107D01*
G54D47*X127996Y8500D02*X137484D01*
X127996Y18500D02*X137484D01*
X127996Y28500D02*X137484D01*
G54D44*X152543Y32393D02*Y31607D01*
X145457Y32393D02*Y31607D01*
G54D48*X141895Y40094D02*X145989D01*
X134179Y46000D02*X145989D01*
X141895Y51906D02*X145989D01*
G54D49*X130555Y46000D02*X132445D01*
G54D42*G36*
X135326Y42695D02*X138590Y45959D01*
X140434Y44115D01*
X137170Y40851D01*
X135326Y42695D01*
G37*
G36*
X137170Y51149D02*X140434Y47885D01*
X138590Y46041D01*
X135326Y49305D01*
X137170Y51149D01*
G37*
G54D46*X76000Y6000D02*X82500D01*
X76000Y11000D02*X82500D01*
X76000Y16000D02*X82500D01*
X76000Y21000D02*X82500D01*
G54D44*X90957Y26893D02*Y26107D01*
Y35893D02*Y35107D01*
M02*
