G04 start of page 3 for group 1 idx 1 *
G04 Title: (unknown), bottom *
G04 Creator: pcb 20140316 *
G04 CreationDate: Sun 15 Dec 2019 10:03:36 PM GMT UTC *
G04 For: railfan *
G04 Format: Gerber/RS-274X *
G04 PCB-Dimensions (mil): 1900.00 1120.00 *
G04 PCB-Coordinate-Origin: lower left *
%MOIN*%
%FSLAX25Y25*%
%LNBOTTOM*%
%ADD36C,0.0480*%
%ADD35C,0.1285*%
%ADD34C,0.0200*%
%ADD33C,0.0360*%
%ADD32C,0.0800*%
%ADD31C,0.2937*%
%ADD30C,0.0100*%
%ADD29C,0.0001*%
G54D29*G36*
X17993Y57000D02*X22000D01*
Y38500D01*
X17993D01*
Y43145D01*
X18078Y43181D01*
X18179Y43243D01*
X18269Y43319D01*
X18345Y43409D01*
X18405Y43511D01*
X18622Y43980D01*
X18789Y44469D01*
X18909Y44972D01*
X18982Y45484D01*
X19006Y46000D01*
X18982Y46516D01*
X18909Y47028D01*
X18789Y47531D01*
X18622Y48020D01*
X18410Y48492D01*
X18349Y48593D01*
X18272Y48684D01*
X18182Y48761D01*
X18080Y48823D01*
X17993Y48860D01*
Y57000D01*
G37*
G36*
X13502D02*X17993D01*
Y48860D01*
X17971Y48869D01*
X17855Y48897D01*
X17737Y48906D01*
X17619Y48897D01*
X17503Y48870D01*
X17393Y48824D01*
X17292Y48762D01*
X17202Y48686D01*
X17124Y48595D01*
X17062Y48494D01*
X17016Y48385D01*
X16989Y48269D01*
X16979Y48151D01*
X16988Y48032D01*
X17016Y47917D01*
X17063Y47808D01*
X17221Y47468D01*
X17342Y47112D01*
X17430Y46747D01*
X17482Y46375D01*
X17500Y46000D01*
X17482Y45625D01*
X17430Y45253D01*
X17342Y44888D01*
X17221Y44532D01*
X17067Y44190D01*
X17020Y44082D01*
X16993Y43967D01*
X16983Y43849D01*
X16993Y43732D01*
X17021Y43617D01*
X17066Y43508D01*
X17128Y43407D01*
X17205Y43318D01*
X17295Y43241D01*
X17395Y43180D01*
X17504Y43135D01*
X17619Y43107D01*
X17737Y43098D01*
X17855Y43108D01*
X17969Y43135D01*
X17993Y43145D01*
Y38500D01*
X13502D01*
Y40494D01*
X14016Y40518D01*
X14528Y40591D01*
X15031Y40711D01*
X15520Y40878D01*
X15992Y41090D01*
X16093Y41151D01*
X16184Y41228D01*
X16261Y41318D01*
X16323Y41420D01*
X16369Y41529D01*
X16397Y41645D01*
X16406Y41763D01*
X16397Y41881D01*
X16370Y41997D01*
X16324Y42107D01*
X16262Y42208D01*
X16186Y42298D01*
X16095Y42376D01*
X15994Y42438D01*
X15885Y42484D01*
X15769Y42511D01*
X15651Y42521D01*
X15532Y42512D01*
X15417Y42484D01*
X15308Y42437D01*
X14968Y42279D01*
X14612Y42158D01*
X14247Y42070D01*
X13875Y42018D01*
X13502Y42000D01*
Y50000D01*
X13875Y49982D01*
X14247Y49930D01*
X14612Y49842D01*
X14968Y49721D01*
X15310Y49567D01*
X15418Y49520D01*
X15533Y49493D01*
X15651Y49483D01*
X15768Y49493D01*
X15883Y49521D01*
X15992Y49566D01*
X16093Y49628D01*
X16182Y49705D01*
X16259Y49795D01*
X16320Y49895D01*
X16365Y50004D01*
X16393Y50119D01*
X16402Y50237D01*
X16392Y50355D01*
X16365Y50469D01*
X16319Y50578D01*
X16257Y50679D01*
X16181Y50769D01*
X16091Y50845D01*
X15989Y50905D01*
X15520Y51122D01*
X15031Y51289D01*
X14528Y51409D01*
X14016Y51482D01*
X13502Y51506D01*
Y57000D01*
G37*
G36*
X9007D02*X13502D01*
Y51506D01*
X13500Y51506D01*
X12984Y51482D01*
X12472Y51409D01*
X11969Y51289D01*
X11480Y51122D01*
X11008Y50910D01*
X10907Y50849D01*
X10816Y50772D01*
X10739Y50682D01*
X10677Y50580D01*
X10631Y50471D01*
X10603Y50355D01*
X10594Y50237D01*
X10603Y50119D01*
X10630Y50003D01*
X10676Y49893D01*
X10738Y49792D01*
X10814Y49702D01*
X10905Y49624D01*
X11006Y49562D01*
X11115Y49516D01*
X11231Y49489D01*
X11349Y49479D01*
X11468Y49488D01*
X11583Y49516D01*
X11692Y49563D01*
X12032Y49721D01*
X12388Y49842D01*
X12753Y49930D01*
X13125Y49982D01*
X13500Y50000D01*
X13502Y50000D01*
Y42000D01*
X13500Y42000D01*
X13125Y42018D01*
X12753Y42070D01*
X12388Y42158D01*
X12032Y42279D01*
X11690Y42433D01*
X11582Y42480D01*
X11467Y42507D01*
X11349Y42517D01*
X11232Y42507D01*
X11117Y42479D01*
X11008Y42434D01*
X10907Y42372D01*
X10818Y42295D01*
X10741Y42205D01*
X10680Y42105D01*
X10635Y41996D01*
X10607Y41881D01*
X10598Y41763D01*
X10608Y41645D01*
X10635Y41531D01*
X10681Y41422D01*
X10743Y41321D01*
X10819Y41231D01*
X10909Y41155D01*
X11011Y41095D01*
X11480Y40878D01*
X11969Y40711D01*
X12472Y40591D01*
X12984Y40518D01*
X13500Y40494D01*
X13502Y40494D01*
Y38500D01*
X9007D01*
Y43140D01*
X9029Y43131D01*
X9145Y43103D01*
X9263Y43094D01*
X9381Y43103D01*
X9497Y43130D01*
X9607Y43176D01*
X9708Y43238D01*
X9798Y43314D01*
X9876Y43405D01*
X9938Y43506D01*
X9984Y43615D01*
X10011Y43731D01*
X10021Y43849D01*
X10012Y43968D01*
X9984Y44083D01*
X9937Y44192D01*
X9779Y44532D01*
X9658Y44888D01*
X9570Y45253D01*
X9518Y45625D01*
X9500Y46000D01*
X9518Y46375D01*
X9570Y46747D01*
X9658Y47112D01*
X9779Y47468D01*
X9933Y47810D01*
X9980Y47918D01*
X10007Y48033D01*
X10017Y48151D01*
X10007Y48268D01*
X9979Y48383D01*
X9934Y48492D01*
X9872Y48593D01*
X9795Y48682D01*
X9705Y48759D01*
X9605Y48820D01*
X9496Y48865D01*
X9381Y48893D01*
X9263Y48902D01*
X9145Y48892D01*
X9031Y48865D01*
X9007Y48855D01*
Y57000D01*
G37*
G36*
X5000Y38500D02*Y57000D01*
X9007D01*
Y48855D01*
X8922Y48819D01*
X8821Y48757D01*
X8731Y48681D01*
X8655Y48591D01*
X8595Y48489D01*
X8378Y48020D01*
X8211Y47531D01*
X8091Y47028D01*
X8018Y46516D01*
X7994Y46000D01*
X8018Y45484D01*
X8091Y44972D01*
X8211Y44469D01*
X8378Y43980D01*
X8590Y43508D01*
X8651Y43407D01*
X8728Y43316D01*
X8818Y43239D01*
X8920Y43177D01*
X9007Y43140D01*
Y38500D01*
X5000D01*
G37*
G36*
X104000Y62000D02*Y47500D01*
X18796D01*
X18789Y47531D01*
X18622Y48020D01*
X18410Y48492D01*
X18349Y48593D01*
X18272Y48684D01*
X18182Y48761D01*
X18080Y48823D01*
X17971Y48869D01*
X17855Y48897D01*
X17737Y48906D01*
X17619Y48897D01*
X17503Y48870D01*
X17393Y48824D01*
X17292Y48762D01*
X17202Y48686D01*
X17124Y48595D01*
X17062Y48494D01*
X17016Y48385D01*
X16989Y48269D01*
X16979Y48151D01*
X16988Y48032D01*
X17016Y47917D01*
X17063Y47808D01*
X17206Y47500D01*
X13498D01*
Y50000D01*
X13500Y50000D01*
X13875Y49982D01*
X14247Y49930D01*
X14612Y49842D01*
X14968Y49721D01*
X15310Y49567D01*
X15418Y49520D01*
X15533Y49493D01*
X15651Y49483D01*
X15768Y49493D01*
X15883Y49521D01*
X15992Y49566D01*
X16093Y49628D01*
X16182Y49705D01*
X16259Y49795D01*
X16320Y49895D01*
X16365Y50004D01*
X16393Y50119D01*
X16402Y50237D01*
X16392Y50355D01*
X16365Y50469D01*
X16319Y50578D01*
X16257Y50679D01*
X16181Y50769D01*
X16091Y50845D01*
X15989Y50905D01*
X15520Y51122D01*
X15031Y51289D01*
X14528Y51409D01*
X14016Y51482D01*
X13500Y51506D01*
X13498Y51506D01*
Y60507D01*
X17735Y60514D01*
X17965Y60569D01*
X18183Y60659D01*
X18384Y60783D01*
X18564Y60936D01*
X18717Y61116D01*
X18841Y61317D01*
X18931Y61535D01*
X18986Y61765D01*
X19000Y62000D01*
X104000D01*
G37*
G36*
X13498Y47500D02*X9794D01*
X9933Y47810D01*
X9980Y47918D01*
X10007Y48033D01*
X10017Y48151D01*
X10007Y48268D01*
X9979Y48383D01*
X9934Y48492D01*
X9872Y48593D01*
X9795Y48682D01*
X9705Y48759D01*
X9605Y48820D01*
X9496Y48865D01*
X9381Y48893D01*
X9263Y48902D01*
X9145Y48892D01*
X9031Y48865D01*
X8922Y48819D01*
X8821Y48757D01*
X8731Y48681D01*
X8655Y48591D01*
X8595Y48489D01*
X8378Y48020D01*
X8211Y47531D01*
X8204Y47500D01*
X5000D01*
Y62000D01*
X8014D01*
X8014Y61765D01*
X8069Y61535D01*
X8159Y61317D01*
X8283Y61116D01*
X8436Y60936D01*
X8616Y60783D01*
X8817Y60659D01*
X9035Y60569D01*
X9265Y60514D01*
X9500Y60500D01*
X13498Y60507D01*
Y51506D01*
X12984Y51482D01*
X12472Y51409D01*
X11969Y51289D01*
X11480Y51122D01*
X11008Y50910D01*
X10907Y50849D01*
X10816Y50772D01*
X10739Y50682D01*
X10677Y50580D01*
X10631Y50471D01*
X10603Y50355D01*
X10594Y50237D01*
X10603Y50119D01*
X10630Y50003D01*
X10676Y49893D01*
X10738Y49792D01*
X10814Y49702D01*
X10905Y49624D01*
X11006Y49562D01*
X11115Y49516D01*
X11231Y49489D01*
X11349Y49479D01*
X11468Y49488D01*
X11583Y49516D01*
X11692Y49563D01*
X12032Y49721D01*
X12388Y49842D01*
X12753Y49930D01*
X13125Y49982D01*
X13498Y50000D01*
Y47500D01*
G37*
G36*
X24500Y33500D02*Y45500D01*
X162513D01*
X162514Y44765D01*
X162569Y44535D01*
X162659Y44317D01*
X162783Y44116D01*
X162936Y43936D01*
X163116Y43783D01*
X163317Y43659D01*
X163535Y43569D01*
X163765Y43514D01*
X164000Y43500D01*
X172235Y43514D01*
X172465Y43569D01*
X172683Y43659D01*
X172884Y43783D01*
X173064Y43936D01*
X173217Y44116D01*
X173341Y44317D01*
X173431Y44535D01*
X173486Y44765D01*
X173500Y45000D01*
X173499Y45500D01*
X188000D01*
Y33500D01*
X50194D01*
X50174Y33839D01*
X50071Y34268D01*
X49903Y34675D01*
X49672Y35051D01*
X49386Y35386D01*
X49051Y35672D01*
X48675Y35903D01*
X48268Y36071D01*
X47839Y36174D01*
X47400Y36209D01*
X46961Y36174D01*
X46532Y36071D01*
X46125Y35903D01*
X45749Y35672D01*
X45414Y35386D01*
X45128Y35051D01*
X44897Y34675D01*
X44729Y34268D01*
X44626Y33839D01*
X44599Y33500D01*
X24500D01*
G37*
G36*
X168000Y110000D02*X168295D01*
X168138Y109962D01*
X168000Y109905D01*
Y110000D01*
G37*
G36*
X188000Y38500D02*X172493D01*
Y43580D01*
X172683Y43659D01*
X172884Y43783D01*
X173064Y43936D01*
X173217Y44116D01*
X173341Y44317D01*
X173431Y44535D01*
X173486Y44765D01*
X173500Y45000D01*
X173486Y53235D01*
X173431Y53465D01*
X173341Y53683D01*
X173217Y53884D01*
X173064Y54064D01*
X172884Y54217D01*
X172683Y54341D01*
X172493Y54420D01*
Y66145D01*
X172578Y66181D01*
X172679Y66243D01*
X172769Y66319D01*
X172845Y66409D01*
X172905Y66511D01*
X173122Y66980D01*
X173289Y67469D01*
X173409Y67972D01*
X173482Y68484D01*
X173506Y69000D01*
X173482Y69516D01*
X173409Y70028D01*
X173289Y70531D01*
X173122Y71020D01*
X172910Y71492D01*
X172849Y71593D01*
X172772Y71684D01*
X172682Y71761D01*
X172580Y71823D01*
X172493Y71860D01*
Y79308D01*
X173000Y79268D01*
X175461Y79461D01*
X177862Y80038D01*
X180142Y80982D01*
X182247Y82272D01*
X184124Y83876D01*
X185728Y85753D01*
X187018Y87858D01*
X187962Y90138D01*
X188000Y90295D01*
Y38500D01*
G37*
G36*
X172493Y54420D02*X172465Y54431D01*
X172235Y54486D01*
X172000Y54500D01*
X168000Y54493D01*
Y63494D01*
X168516Y63518D01*
X169028Y63591D01*
X169531Y63711D01*
X170020Y63878D01*
X170492Y64090D01*
X170593Y64151D01*
X170684Y64228D01*
X170761Y64318D01*
X170823Y64420D01*
X170869Y64529D01*
X170897Y64645D01*
X170906Y64763D01*
X170897Y64881D01*
X170870Y64997D01*
X170824Y65107D01*
X170762Y65208D01*
X170686Y65298D01*
X170595Y65376D01*
X170494Y65438D01*
X170385Y65484D01*
X170269Y65511D01*
X170151Y65521D01*
X170032Y65512D01*
X169917Y65484D01*
X169808Y65437D01*
X169468Y65279D01*
X169112Y65158D01*
X168747Y65070D01*
X168375Y65018D01*
X168000Y65000D01*
Y73000D01*
X168375Y72982D01*
X168747Y72930D01*
X169112Y72842D01*
X169468Y72721D01*
X169810Y72567D01*
X169918Y72520D01*
X170033Y72493D01*
X170151Y72483D01*
X170268Y72493D01*
X170383Y72521D01*
X170492Y72566D01*
X170593Y72628D01*
X170682Y72705D01*
X170759Y72795D01*
X170820Y72895D01*
X170865Y73004D01*
X170893Y73119D01*
X170902Y73237D01*
X170892Y73355D01*
X170865Y73469D01*
X170819Y73578D01*
X170757Y73679D01*
X170681Y73769D01*
X170591Y73845D01*
X170489Y73905D01*
X170020Y74122D01*
X169531Y74289D01*
X169028Y74409D01*
X168516Y74482D01*
X168000Y74506D01*
Y80095D01*
X168138Y80038D01*
X170539Y79461D01*
X172493Y79308D01*
Y71860D01*
X172471Y71869D01*
X172355Y71897D01*
X172237Y71906D01*
X172119Y71897D01*
X172003Y71870D01*
X171893Y71824D01*
X171792Y71762D01*
X171702Y71686D01*
X171624Y71595D01*
X171562Y71494D01*
X171516Y71385D01*
X171489Y71269D01*
X171479Y71151D01*
X171488Y71032D01*
X171516Y70917D01*
X171563Y70808D01*
X171721Y70468D01*
X171842Y70112D01*
X171930Y69747D01*
X171982Y69375D01*
X172000Y69000D01*
X171982Y68625D01*
X171930Y68253D01*
X171842Y67888D01*
X171721Y67532D01*
X171567Y67190D01*
X171520Y67082D01*
X171493Y66967D01*
X171483Y66849D01*
X171493Y66732D01*
X171521Y66617D01*
X171566Y66508D01*
X171628Y66407D01*
X171705Y66318D01*
X171795Y66241D01*
X171895Y66180D01*
X172004Y66135D01*
X172119Y66107D01*
X172237Y66098D01*
X172355Y66108D01*
X172469Y66135D01*
X172493Y66145D01*
Y54420D01*
G37*
G36*
Y38500D02*X168000D01*
Y43507D01*
X172235Y43514D01*
X172465Y43569D01*
X172493Y43580D01*
Y38500D01*
G37*
G36*
X163507Y82482D02*X163753Y82272D01*
X165858Y80982D01*
X168000Y80095D01*
Y74506D01*
X167484Y74482D01*
X166972Y74409D01*
X166469Y74289D01*
X165980Y74122D01*
X165508Y73910D01*
X165407Y73849D01*
X165316Y73772D01*
X165239Y73682D01*
X165177Y73580D01*
X165131Y73471D01*
X165103Y73355D01*
X165094Y73237D01*
X165103Y73119D01*
X165130Y73003D01*
X165176Y72893D01*
X165238Y72792D01*
X165314Y72702D01*
X165405Y72624D01*
X165506Y72562D01*
X165615Y72516D01*
X165731Y72489D01*
X165849Y72479D01*
X165968Y72488D01*
X166083Y72516D01*
X166192Y72563D01*
X166532Y72721D01*
X166888Y72842D01*
X167253Y72930D01*
X167625Y72982D01*
X168000Y73000D01*
Y65000D01*
X167625Y65018D01*
X167253Y65070D01*
X166888Y65158D01*
X166532Y65279D01*
X166190Y65433D01*
X166082Y65480D01*
X165967Y65507D01*
X165849Y65517D01*
X165732Y65507D01*
X165617Y65479D01*
X165508Y65434D01*
X165407Y65372D01*
X165318Y65295D01*
X165241Y65205D01*
X165180Y65105D01*
X165135Y64996D01*
X165107Y64881D01*
X165098Y64763D01*
X165108Y64645D01*
X165135Y64531D01*
X165181Y64422D01*
X165243Y64321D01*
X165319Y64231D01*
X165409Y64155D01*
X165511Y64095D01*
X165980Y63878D01*
X166469Y63711D01*
X166972Y63591D01*
X167484Y63518D01*
X168000Y63494D01*
Y54493D01*
X163765Y54486D01*
X163535Y54431D01*
X163507Y54420D01*
Y66140D01*
X163529Y66131D01*
X163645Y66103D01*
X163763Y66094D01*
X163881Y66103D01*
X163997Y66130D01*
X164107Y66176D01*
X164208Y66238D01*
X164298Y66314D01*
X164376Y66405D01*
X164438Y66506D01*
X164484Y66615D01*
X164511Y66731D01*
X164521Y66849D01*
X164512Y66968D01*
X164484Y67083D01*
X164437Y67192D01*
X164279Y67532D01*
X164158Y67888D01*
X164070Y68253D01*
X164018Y68625D01*
X164000Y69000D01*
X164018Y69375D01*
X164070Y69747D01*
X164158Y70112D01*
X164279Y70468D01*
X164433Y70810D01*
X164480Y70918D01*
X164507Y71033D01*
X164517Y71151D01*
X164507Y71268D01*
X164479Y71383D01*
X164434Y71492D01*
X164372Y71593D01*
X164295Y71682D01*
X164205Y71759D01*
X164105Y71820D01*
X163996Y71865D01*
X163881Y71893D01*
X163763Y71902D01*
X163645Y71892D01*
X163531Y71865D01*
X163507Y71855D01*
Y82482D01*
G37*
G36*
Y110000D02*X168000D01*
Y109905D01*
X165858Y109018D01*
X163753Y107728D01*
X163507Y107518D01*
Y110000D01*
G37*
G36*
X168000Y38500D02*X163507D01*
Y43580D01*
X163535Y43569D01*
X163765Y43514D01*
X164000Y43500D01*
X168000Y43507D01*
Y38500D01*
G37*
G36*
X163507D02*X113496D01*
Y50192D01*
X113500Y50191D01*
X113939Y50226D01*
X114368Y50329D01*
X114775Y50497D01*
X115151Y50728D01*
X115486Y51014D01*
X115772Y51349D01*
X116003Y51725D01*
X116171Y52132D01*
X116274Y52561D01*
X116300Y53000D01*
X116274Y53439D01*
X116171Y53868D01*
X116003Y54275D01*
X115772Y54651D01*
X115486Y54986D01*
X115151Y55272D01*
X114775Y55503D01*
X114368Y55671D01*
X113939Y55774D01*
X113500Y55809D01*
X113496Y55808D01*
Y64192D01*
X113500Y64191D01*
X113939Y64226D01*
X114368Y64329D01*
X114775Y64497D01*
X115151Y64728D01*
X115486Y65014D01*
X115772Y65349D01*
X116003Y65725D01*
X116171Y66132D01*
X116274Y66561D01*
X116300Y67000D01*
X116274Y67439D01*
X116171Y67868D01*
X116003Y68275D01*
X115772Y68651D01*
X115486Y68986D01*
X115151Y69272D01*
X114775Y69503D01*
X114368Y69671D01*
X113939Y69774D01*
X113500Y69809D01*
X113496Y69808D01*
Y110000D01*
X163507D01*
Y107518D01*
X161876Y106124D01*
X160272Y104247D01*
X158982Y102142D01*
X158038Y99862D01*
X157461Y97461D01*
X157268Y95000D01*
X157461Y92539D01*
X158038Y90138D01*
X158982Y87858D01*
X160272Y85753D01*
X161876Y83876D01*
X163507Y82482D01*
Y71855D01*
X163422Y71819D01*
X163321Y71757D01*
X163231Y71681D01*
X163155Y71591D01*
X163095Y71489D01*
X162878Y71020D01*
X162711Y70531D01*
X162591Y70028D01*
X162518Y69516D01*
X162494Y69000D01*
X162518Y68484D01*
X162591Y67972D01*
X162711Y67469D01*
X162878Y66980D01*
X163090Y66508D01*
X163151Y66407D01*
X163228Y66316D01*
X163318Y66239D01*
X163420Y66177D01*
X163507Y66140D01*
Y54420D01*
X163317Y54341D01*
X163116Y54217D01*
X162936Y54064D01*
X162783Y53884D01*
X162659Y53683D01*
X162569Y53465D01*
X162514Y53235D01*
X162500Y53000D01*
X162514Y44765D01*
X162569Y44535D01*
X162659Y44317D01*
X162783Y44116D01*
X162936Y43936D01*
X163116Y43783D01*
X163317Y43659D01*
X163507Y43580D01*
Y38500D01*
G37*
G36*
X113496D02*X106000D01*
Y110000D01*
X113496D01*
Y69808D01*
X113061Y69774D01*
X112632Y69671D01*
X112225Y69503D01*
X111849Y69272D01*
X111514Y68986D01*
X111228Y68651D01*
X110997Y68275D01*
X110829Y67868D01*
X110726Y67439D01*
X110691Y67000D01*
X110726Y66561D01*
X110829Y66132D01*
X110997Y65725D01*
X111228Y65349D01*
X111514Y65014D01*
X111849Y64728D01*
X112225Y64497D01*
X112632Y64329D01*
X113061Y64226D01*
X113496Y64192D01*
Y55808D01*
X113061Y55774D01*
X112632Y55671D01*
X112225Y55503D01*
X111849Y55272D01*
X111514Y54986D01*
X111228Y54651D01*
X110997Y54275D01*
X110829Y53868D01*
X110726Y53439D01*
X110691Y53000D01*
X110726Y52561D01*
X110829Y52132D01*
X110997Y51725D01*
X111228Y51349D01*
X111514Y51014D01*
X111849Y50728D01*
X112225Y50497D01*
X112632Y50329D01*
X113061Y50226D01*
X113496Y50192D01*
Y38500D01*
G37*
G36*
X112500Y110000D02*Y75000D01*
X64500D01*
Y86507D01*
X68735Y86514D01*
X68965Y86569D01*
X69183Y86659D01*
X69384Y86783D01*
X69564Y86936D01*
X69717Y87116D01*
X69841Y87317D01*
X69931Y87535D01*
X69986Y87765D01*
X70000Y88000D01*
X69986Y96235D01*
X69931Y96465D01*
X69841Y96683D01*
X69717Y96884D01*
X69564Y97064D01*
X69384Y97217D01*
X69183Y97341D01*
X68965Y97431D01*
X68735Y97486D01*
X68500Y97500D01*
X64500Y97493D01*
Y110000D01*
X112500D01*
G37*
G36*
X64500Y75000D02*X48993D01*
Y89145D01*
X49078Y89181D01*
X49179Y89243D01*
X49269Y89319D01*
X49345Y89409D01*
X49405Y89511D01*
X49622Y89980D01*
X49789Y90469D01*
X49909Y90972D01*
X49982Y91484D01*
X50006Y92000D01*
X49982Y92516D01*
X49909Y93028D01*
X49789Y93531D01*
X49622Y94020D01*
X49410Y94492D01*
X49349Y94593D01*
X49272Y94684D01*
X49182Y94761D01*
X49080Y94823D01*
X48993Y94860D01*
Y110000D01*
X64500D01*
Y97493D01*
X60265Y97486D01*
X60035Y97431D01*
X59817Y97341D01*
X59616Y97217D01*
X59436Y97064D01*
X59283Y96884D01*
X59159Y96683D01*
X59069Y96465D01*
X59014Y96235D01*
X59000Y96000D01*
X59014Y87765D01*
X59069Y87535D01*
X59159Y87317D01*
X59283Y87116D01*
X59436Y86936D01*
X59616Y86783D01*
X59817Y86659D01*
X60035Y86569D01*
X60265Y86514D01*
X60500Y86500D01*
X64500Y86507D01*
Y75000D01*
G37*
G36*
X48993D02*X44502D01*
Y86494D01*
X45016Y86518D01*
X45528Y86591D01*
X46031Y86711D01*
X46520Y86878D01*
X46992Y87090D01*
X47093Y87151D01*
X47184Y87228D01*
X47261Y87318D01*
X47323Y87420D01*
X47369Y87529D01*
X47397Y87645D01*
X47406Y87763D01*
X47397Y87881D01*
X47370Y87997D01*
X47324Y88107D01*
X47262Y88208D01*
X47186Y88298D01*
X47095Y88376D01*
X46994Y88438D01*
X46885Y88484D01*
X46769Y88511D01*
X46651Y88521D01*
X46532Y88512D01*
X46417Y88484D01*
X46308Y88437D01*
X45968Y88279D01*
X45612Y88158D01*
X45247Y88070D01*
X44875Y88018D01*
X44502Y88000D01*
Y96000D01*
X44875Y95982D01*
X45247Y95930D01*
X45612Y95842D01*
X45968Y95721D01*
X46310Y95567D01*
X46418Y95520D01*
X46533Y95493D01*
X46651Y95483D01*
X46768Y95493D01*
X46883Y95521D01*
X46992Y95566D01*
X47093Y95628D01*
X47182Y95705D01*
X47259Y95795D01*
X47320Y95895D01*
X47365Y96004D01*
X47393Y96119D01*
X47402Y96237D01*
X47392Y96355D01*
X47365Y96469D01*
X47319Y96578D01*
X47257Y96679D01*
X47181Y96769D01*
X47091Y96845D01*
X46989Y96905D01*
X46520Y97122D01*
X46031Y97289D01*
X45528Y97409D01*
X45016Y97482D01*
X44502Y97506D01*
Y110000D01*
X48993D01*
Y94860D01*
X48971Y94869D01*
X48855Y94897D01*
X48737Y94906D01*
X48619Y94897D01*
X48503Y94870D01*
X48393Y94824D01*
X48292Y94762D01*
X48202Y94686D01*
X48124Y94595D01*
X48062Y94494D01*
X48016Y94385D01*
X47989Y94269D01*
X47979Y94151D01*
X47988Y94032D01*
X48016Y93917D01*
X48063Y93808D01*
X48221Y93468D01*
X48342Y93112D01*
X48430Y92747D01*
X48482Y92375D01*
X48500Y92000D01*
X48482Y91625D01*
X48430Y91253D01*
X48342Y90888D01*
X48221Y90532D01*
X48067Y90190D01*
X48020Y90082D01*
X47993Y89967D01*
X47983Y89849D01*
X47993Y89732D01*
X48021Y89617D01*
X48066Y89508D01*
X48128Y89407D01*
X48205Y89318D01*
X48295Y89241D01*
X48395Y89180D01*
X48504Y89135D01*
X48619Y89107D01*
X48737Y89098D01*
X48855Y89108D01*
X48969Y89135D01*
X48993Y89145D01*
Y75000D01*
G37*
G36*
X44502D02*X40007D01*
Y89140D01*
X40029Y89131D01*
X40145Y89103D01*
X40263Y89094D01*
X40381Y89103D01*
X40497Y89130D01*
X40607Y89176D01*
X40708Y89238D01*
X40798Y89314D01*
X40876Y89405D01*
X40938Y89506D01*
X40984Y89615D01*
X41011Y89731D01*
X41021Y89849D01*
X41012Y89968D01*
X40984Y90083D01*
X40937Y90192D01*
X40779Y90532D01*
X40658Y90888D01*
X40570Y91253D01*
X40518Y91625D01*
X40500Y92000D01*
X40518Y92375D01*
X40570Y92747D01*
X40658Y93112D01*
X40779Y93468D01*
X40933Y93810D01*
X40980Y93918D01*
X41007Y94033D01*
X41017Y94151D01*
X41007Y94268D01*
X40979Y94383D01*
X40934Y94492D01*
X40872Y94593D01*
X40795Y94682D01*
X40705Y94759D01*
X40605Y94820D01*
X40496Y94865D01*
X40381Y94893D01*
X40263Y94902D01*
X40145Y94892D01*
X40031Y94865D01*
X40007Y94855D01*
Y110000D01*
X44502D01*
Y97506D01*
X44500Y97506D01*
X43984Y97482D01*
X43472Y97409D01*
X42969Y97289D01*
X42480Y97122D01*
X42008Y96910D01*
X41907Y96849D01*
X41816Y96772D01*
X41739Y96682D01*
X41677Y96580D01*
X41631Y96471D01*
X41603Y96355D01*
X41594Y96237D01*
X41603Y96119D01*
X41630Y96003D01*
X41676Y95893D01*
X41738Y95792D01*
X41814Y95702D01*
X41905Y95624D01*
X42006Y95562D01*
X42115Y95516D01*
X42231Y95489D01*
X42349Y95479D01*
X42468Y95488D01*
X42583Y95516D01*
X42692Y95563D01*
X43032Y95721D01*
X43388Y95842D01*
X43753Y95930D01*
X44125Y95982D01*
X44500Y96000D01*
X44502Y96000D01*
Y88000D01*
X44500Y88000D01*
X44125Y88018D01*
X43753Y88070D01*
X43388Y88158D01*
X43032Y88279D01*
X42690Y88433D01*
X42582Y88480D01*
X42467Y88507D01*
X42349Y88517D01*
X42232Y88507D01*
X42117Y88479D01*
X42008Y88434D01*
X41907Y88372D01*
X41818Y88295D01*
X41741Y88205D01*
X41680Y88105D01*
X41635Y87996D01*
X41607Y87881D01*
X41598Y87763D01*
X41608Y87645D01*
X41635Y87531D01*
X41681Y87422D01*
X41743Y87321D01*
X41819Y87231D01*
X41909Y87155D01*
X42011Y87095D01*
X42480Y86878D01*
X42969Y86711D01*
X43472Y86591D01*
X43984Y86518D01*
X44500Y86494D01*
X44502Y86494D01*
Y75000D01*
G37*
G36*
X40007D02*X2000D01*
Y90295D01*
X2038Y90138D01*
X2982Y87858D01*
X4272Y85753D01*
X5876Y83876D01*
X7753Y82272D01*
X9858Y80982D01*
X12138Y80038D01*
X14539Y79461D01*
X17000Y79268D01*
X19461Y79461D01*
X21862Y80038D01*
X24142Y80982D01*
X26247Y82272D01*
X28124Y83876D01*
X29728Y85753D01*
X31018Y87858D01*
X31962Y90138D01*
X32539Y92539D01*
X32684Y95000D01*
X32539Y97461D01*
X31962Y99862D01*
X31018Y102142D01*
X29728Y104247D01*
X28124Y106124D01*
X26247Y107728D01*
X24142Y109018D01*
X21862Y109962D01*
X21705Y110000D01*
X40007D01*
Y94855D01*
X39922Y94819D01*
X39821Y94757D01*
X39731Y94681D01*
X39655Y94591D01*
X39595Y94489D01*
X39378Y94020D01*
X39211Y93531D01*
X39091Y93028D01*
X39018Y92516D01*
X38994Y92000D01*
X39018Y91484D01*
X39091Y90972D01*
X39211Y90469D01*
X39378Y89980D01*
X39590Y89508D01*
X39651Y89407D01*
X39728Y89316D01*
X39818Y89239D01*
X39920Y89177D01*
X40007Y89140D01*
Y75000D01*
G37*
G36*
X50121Y21500D02*X48900Y22721D01*
Y31035D01*
X49051Y31128D01*
X49386Y31414D01*
X49672Y31749D01*
X49903Y32125D01*
X50071Y32532D01*
X50174Y32961D01*
X50200Y33400D01*
X50174Y33839D01*
X50071Y34268D01*
X49903Y34675D01*
X49672Y35051D01*
X49386Y35386D01*
X49051Y35672D01*
X48675Y35903D01*
X48440Y36000D01*
X188000D01*
Y21705D01*
X187962Y21862D01*
X187018Y24142D01*
X185728Y26247D01*
X184124Y28124D01*
X182247Y29728D01*
X180142Y31018D01*
X177862Y31962D01*
X175461Y32539D01*
X173000Y32732D01*
X170539Y32539D01*
X168138Y31962D01*
X165858Y31018D01*
X163753Y29728D01*
X161876Y28124D01*
X160272Y26247D01*
X158982Y24142D01*
X158038Y21862D01*
X157461Y19461D01*
X157268Y17000D01*
X157461Y14539D01*
X158038Y12138D01*
X158982Y9858D01*
X160272Y7753D01*
X161876Y5876D01*
X163753Y4272D01*
X165858Y2982D01*
X168138Y2038D01*
X168295Y2000D01*
X21705D01*
X21862Y2038D01*
X24142Y2982D01*
X26247Y4272D01*
X28124Y5876D01*
X29728Y7753D01*
X31018Y9858D01*
X31962Y12138D01*
X32539Y14539D01*
X32684Y17000D01*
X32539Y19461D01*
X31962Y21862D01*
X31018Y24142D01*
X29728Y26247D01*
X28124Y28124D01*
X26247Y29728D01*
X24142Y31018D01*
X21862Y31962D01*
X19461Y32539D01*
X17000Y32732D01*
X14539Y32539D01*
X12138Y31962D01*
X9858Y31018D01*
X7753Y29728D01*
X5876Y28124D01*
X4272Y26247D01*
X2982Y24142D01*
X2038Y21862D01*
X2000Y21705D01*
Y36000D01*
X46360D01*
X46125Y35903D01*
X45749Y35672D01*
X45414Y35386D01*
X45128Y35051D01*
X44897Y34675D01*
X44729Y34268D01*
X44626Y33839D01*
X44591Y33400D01*
X44626Y32961D01*
X44729Y32532D01*
X44897Y32125D01*
X45128Y31749D01*
X45414Y31414D01*
X45749Y31128D01*
X45900Y31035D01*
Y22159D01*
X45895Y22100D01*
X45914Y21865D01*
X45969Y21635D01*
X46059Y21417D01*
X46183Y21216D01*
X46183Y21215D01*
X46336Y21036D01*
X46381Y20998D01*
X48398Y18981D01*
X48436Y18936D01*
X48616Y18783D01*
X48817Y18659D01*
X49035Y18569D01*
X49265Y18514D01*
X49500Y18495D01*
X49559Y18500D01*
X64221D01*
X63849Y18272D01*
X63514Y17986D01*
X63228Y17651D01*
X63135Y17500D01*
X40621D01*
X40233Y17889D01*
X40274Y18061D01*
X40300Y18500D01*
X40274Y18939D01*
X40171Y19368D01*
X40003Y19775D01*
X39772Y20151D01*
X39486Y20486D01*
X39151Y20772D01*
X38775Y21003D01*
X38368Y21171D01*
X37939Y21274D01*
X37500Y21309D01*
X37061Y21274D01*
X36632Y21171D01*
X36225Y21003D01*
X35849Y20772D01*
X35514Y20486D01*
X35228Y20151D01*
X34997Y19775D01*
X34829Y19368D01*
X34726Y18939D01*
X34691Y18500D01*
X34726Y18061D01*
X34829Y17632D01*
X34997Y17225D01*
X35228Y16849D01*
X35514Y16514D01*
X35849Y16228D01*
X36225Y15997D01*
X36632Y15829D01*
X37061Y15726D01*
X37500Y15691D01*
X37939Y15726D01*
X38111Y15767D01*
X38898Y14981D01*
X38936Y14936D01*
X39115Y14783D01*
X39116Y14783D01*
X39317Y14659D01*
X39535Y14569D01*
X39765Y14514D01*
X40000Y14495D01*
X40059Y14500D01*
X63135D01*
X63228Y14349D01*
X63514Y14014D01*
X63849Y13728D01*
X64221Y13500D01*
X63849Y13272D01*
X63514Y12986D01*
X63228Y12651D01*
X62997Y12275D01*
X62829Y11868D01*
X62726Y11439D01*
X62691Y11000D01*
X62726Y10561D01*
X62829Y10132D01*
X62997Y9725D01*
X63228Y9349D01*
X63514Y9014D01*
X63849Y8728D01*
X64225Y8497D01*
X64632Y8329D01*
X65061Y8226D01*
X65500Y8191D01*
X65939Y8226D01*
X66368Y8329D01*
X66775Y8497D01*
X67151Y8728D01*
X67486Y9014D01*
X67772Y9349D01*
X68003Y9725D01*
X68171Y10132D01*
X68274Y10561D01*
X68300Y11000D01*
X68274Y11439D01*
X68233Y11611D01*
X70519Y13898D01*
X70564Y13936D01*
X70717Y14115D01*
X70717Y14116D01*
X70841Y14317D01*
X70931Y14535D01*
X70986Y14765D01*
X71005Y15000D01*
X71000Y15059D01*
Y17441D01*
X71005Y17500D01*
X70986Y17735D01*
X70986Y17735D01*
X70931Y17965D01*
X70841Y18183D01*
X70717Y18384D01*
X70564Y18564D01*
X70519Y18602D01*
X68102Y21019D01*
X68064Y21064D01*
X67884Y21217D01*
X67683Y21341D01*
X67465Y21431D01*
X67235Y21486D01*
X67235Y21486D01*
X67000Y21505D01*
X66941Y21500D01*
X50121D01*
G37*
G54D30*X49500Y20000D02*X67000D01*
X69500Y17500D01*
Y15000D01*
X65500Y16000D02*X40000D01*
X37500Y18500D01*
X47400Y33400D02*Y22100D01*
X49500Y20000D01*
X69500Y15000D02*X65500Y11000D01*
G54D31*X17000Y95000D03*
X173000D03*
G54D29*G36*
X60500Y96000D02*Y88000D01*
X68500D01*
Y96000D01*
X60500D01*
G37*
G54D32*X44500Y92000D03*
G54D31*X17000Y17000D03*
G54D29*G36*
X9500Y70000D02*Y62000D01*
X17500D01*
Y70000D01*
X9500D01*
G37*
G54D32*X13500Y46000D03*
G54D31*X173000Y17000D03*
G54D29*G36*
X164000Y53000D02*Y45000D01*
X172000D01*
Y53000D01*
X164000D01*
G37*
G54D32*X168000Y69000D03*
G54D33*X55500Y43500D03*
X39000D03*
X47400Y33400D03*
X37500Y18500D03*
X65500Y16000D03*
Y11000D03*
X51000Y6000D03*
X65500D03*
X152543Y11543D03*
X152500Y16500D03*
Y21500D03*
X79000Y57000D03*
X84500D03*
X90000D03*
Y52000D03*
X84500D03*
X79000D03*
X113500Y67000D03*
Y81000D03*
Y53000D03*
Y39000D03*
G54D34*G54D35*G54D36*G54D35*G54D36*G54D35*G54D36*M02*
