G04 start of page 10 for group -4015 idx -4015 *
G04 Title: (unknown), toppaste *
G04 Creator: pcb 20140316 *
G04 CreationDate: Sun 15 Dec 2019 10:03:36 PM GMT UTC *
G04 For: railfan *
G04 Format: Gerber/RS-274X *
G04 PCB-Dimensions (mil): 1900.00 1120.00 *
G04 PCB-Coordinate-Origin: lower left *
%MOIN*%
%FSLAX25Y25*%
%LNTOPPASTE*%
%ADD62C,0.0001*%
%ADD61R,0.0945X0.0945*%
%ADD60R,0.0378X0.0378*%
%ADD59R,0.0200X0.0200*%
%ADD58R,0.0500X0.0500*%
%ADD57R,0.0550X0.0550*%
%ADD56R,0.0240X0.0240*%
%ADD55R,0.0512X0.0512*%
G54D55*X131245Y72905D02*X136755D01*
X131245Y61095D02*X136755D01*
G54D56*X43500Y40300D02*Y38700D01*
X47400Y40300D02*Y38700D01*
X51300Y40300D02*Y38700D01*
Y48500D02*Y46900D01*
X47400Y48500D02*Y46900D01*
X43500Y48500D02*Y46900D01*
G54D55*X60414Y48893D02*Y48107D01*
X67500Y48893D02*Y48107D01*
X60457Y38893D02*Y38107D01*
X67543Y38893D02*Y38107D01*
X43957Y61893D02*Y61107D01*
X51043Y61893D02*Y61107D01*
X43957Y70893D02*Y70107D01*
X51043Y70893D02*Y70107D01*
X87107Y63457D02*X87893D01*
X87107Y70543D02*X87893D01*
X77607Y63457D02*X78393D01*
X77607Y70543D02*X78393D01*
G54D57*X113500Y47000D02*Y45000D01*
X100500Y47000D02*Y45000D01*
X113500Y75000D02*Y73000D01*
X100500Y75000D02*Y73000D01*
Y61000D02*Y59000D01*
X113500Y61000D02*Y59000D01*
X100500Y89000D02*Y87000D01*
X113500Y89000D02*Y87000D01*
G54D58*X110516Y28500D02*X120004D01*
X110516Y18500D02*X120004D01*
X110516Y8500D02*X120004D01*
X127996D02*X137484D01*
X127996Y18500D02*X137484D01*
X127996Y28500D02*X137484D01*
G54D59*X55500Y21000D02*X62000D01*
X55500Y16000D02*X62000D01*
X55500Y11000D02*X62000D01*
X55500Y6000D02*X62000D01*
X76000D02*X82500D01*
X76000Y11000D02*X82500D01*
X76000Y16000D02*X82500D01*
X76000Y21000D02*X82500D01*
G54D55*X90957Y26893D02*Y26107D01*
X98043Y26893D02*Y26107D01*
X56414Y28393D02*Y27607D01*
X63500Y28393D02*Y27607D01*
X47107Y13457D02*X47893D01*
X47107Y20543D02*X47893D01*
X37107Y6957D02*X37893D01*
X37107Y14043D02*X37893D01*
X152543Y32393D02*Y31607D01*
X145457Y32393D02*Y31607D01*
X98043Y35893D02*Y35107D01*
X90957Y35893D02*Y35107D01*
G54D60*X141895Y40094D02*X145989D01*
X134179Y46000D02*X145989D01*
G54D61*X130555D02*X132445D01*
G54D62*G36*
X135750Y42695D02*X138590Y45535D01*
X140010Y44115D01*
X137170Y41275D01*
X135750Y42695D01*
G37*
G36*
X137170Y50725D02*X140010Y47885D01*
X138590Y46465D01*
X135750Y49305D01*
X137170Y50725D01*
G37*
G54D60*X141895Y51906D02*X145989D01*
G54D55*X37107Y22914D02*X37893D01*
X37107Y30000D02*X37893D01*
M02*
